<svg width="3511" height="1123" xmlns="http://www.w3.org/2000/svg" xmlns:xlink="http://www.w3.org/1999/xlink" xml:space="preserve" overflow="hidden"><g transform="translate(-733 -174)"><g><path d="M738.5 262.178C738.5 219.278 773.277 184.5 816.177 184.5L3470.82 184.5C3513.72 184.5 3548.5 219.278 3548.5 262.178L3548.5 1210.82C3548.5 1253.72 3513.72 1288.5 3470.82 1288.5L816.177 1288.5C773.277 1288.5 738.5 1253.72 738.5 1210.82Z" stroke="#024059" stroke-width="3.4375" stroke-linecap="butt" stroke-linejoin="miter" stroke-miterlimit="8" stroke-dasharray="13.75 10.3125" stroke-opacity="1" fill="none" fill-rule="evenodd"/><text fill="#747474" fill-opacity="1" font-family="Aptos,Aptos_MSFontService,sans-serif" font-style="normal" font-variant="normal" font-weight="700" font-stretch="normal" font-size="83" text-anchor="start" direction="ltr" writing-mode="lr-tb" unicode-bidi="normal" text-decoration="none" transform="matrix(1 0 0 1 1749.99 277)">SDV</text><text fill="#747474" fill-opacity="1" font-family="Aptos,Aptos_MSFontService,sans-serif" font-style="normal" font-variant="normal" font-weight="700" font-stretch="normal" font-size="83" text-anchor="start" direction="ltr" writing-mode="lr-tb" unicode-bidi="normal" text-decoration="none" transform="matrix(1 0 0 1 1903.16 277)">-</text><text fill="#747474" fill-opacity="1" font-family="Aptos,Aptos_MSFontService,sans-serif" font-style="normal" font-variant="normal" font-weight="700" font-stretch="normal" font-size="83" text-anchor="start" direction="ltr" writing-mode="lr-tb" unicode-bidi="normal" text-decoration="none" transform="matrix(1 0 0 1 1931.24 277)">Runtime Container</text><path d="M808.5 375.503C808.5 344.021 834.021 318.5 865.502 318.5L3430.5 318.5C3461.98 318.5 3487.5 344.021 3487.5 375.503L3487.5 603.497C3487.5 634.979 3461.98 660.5 3430.5 660.5L865.502 660.5C834.021 660.5 808.5 634.979 808.5 603.497Z" stroke="#024059" stroke-width="3.4375" stroke-linecap="butt" stroke-linejoin="miter" stroke-miterlimit="8" stroke-dasharray="13.75 10.3125" stroke-opacity="1" fill="none" fill-rule="evenodd"/><text fill="#747474" fill-opacity="1" font-family="Aptos,Aptos_MSFontService,sans-serif" font-style="normal" font-variant="normal" font-weight="700" font-stretch="normal" font-size="73" text-anchor="start" direction="ltr" writing-mode="lr-tb" unicode-bidi="normal" text-decoration="none" transform="matrix(1 0 0 1 1834.82 402)">Runtime Environment</text><path d="M1904.5 478.334C1904.5 463.514 1916.51 451.5 1931.33 451.5L2469.67 451.5C2484.49 451.5 2496.5 463.514 2496.5 478.334L2496.5 585.666C2496.5 600.486 2484.49 612.5 2469.67 612.5L1931.33 612.5C1916.51 612.5 1904.5 600.486 1904.5 585.666Z" stroke="#024059" stroke-width="3.4375" stroke-linecap="butt" stroke-linejoin="miter" stroke-miterlimit="8" stroke-opacity="1" fill="#F2F2F2" fill-rule="evenodd" fill-opacity="1"/><text fill="#000000" fill-opacity="1" font-family="Aptos,Aptos_MSFontService,sans-serif" font-style="normal" font-variant="normal" font-weight="700" font-stretch="normal" font-size="50" text-anchor="start" direction="ltr" writing-mode="lr-tb" unicode-bidi="normal" text-decoration="none" transform="matrix(1 0 0 1 1964.53 518)">Python 3.10 Runtime </text><text fill="#000000" fill-opacity="1" font-family="Aptos,Aptos_MSFontService,sans-serif" font-style="normal" font-variant="normal" font-weight="700" font-stretch="normal" font-size="50" text-anchor="start" direction="ltr" writing-mode="lr-tb" unicode-bidi="normal" text-decoration="none" transform="matrix(1 0 0 1 2053.91 578)">Environment</text><path d="M808.5 841.334C808.5 795.586 845.586 758.5 891.334 758.5L2074.67 758.5C2120.41 758.5 2157.5 795.586 2157.5 841.334L2157.5 1172.67C2157.5 1218.41 2120.41 1255.5 2074.67 1255.5L891.334 1255.5C845.586 1255.5 808.5 1218.41 808.5 1172.67Z" stroke="#024059" stroke-width="3.4375" stroke-linecap="butt" stroke-linejoin="miter" stroke-miterlimit="8" stroke-dasharray="13.75 10.3125" stroke-opacity="1" fill="none" fill-rule="evenodd"/><path d="M1657.5 873.001C1657.5 855.603 1671.6 841.5 1689 841.5L2008 841.5C2025.4 841.5 2039.5 855.603 2039.5 873.001L2039.5 998.999C2039.5 1016.4 2025.4 1030.5 2008 1030.5L1689 1030.5C1671.6 1030.5 1657.5 1016.4 1657.5 998.999Z" stroke="#024059" stroke-width="3.4375" stroke-linecap="butt" stroke-linejoin="miter" stroke-miterlimit="8" stroke-opacity="1" fill="#C1E5F5" fill-rule="evenodd" fill-opacity="1"/><text fill="#000000" fill-opacity="1" font-family="Aptos,Aptos_MSFontService,sans-serif" font-style="normal" font-variant="normal" font-weight="700" font-stretch="normal" font-size="50" text-anchor="start" direction="ltr" writing-mode="lr-tb" unicode-bidi="normal" text-decoration="none" transform="matrix(1 0 0 1 1740.29 897)">Velocitas </text><text fill="#000000" fill-opacity="1" font-family="Aptos,Aptos_MSFontService,sans-serif" font-style="normal" font-variant="normal" font-weight="700" font-stretch="normal" font-size="50" text-anchor="start" direction="ltr" writing-mode="lr-tb" unicode-bidi="normal" text-decoration="none" transform="matrix(1 0 0 1 1799.3 957)">SDK</text><text fill="#000000" fill-opacity="1" font-family="Aptos,Aptos_MSFontService,sans-serif" font-style="italic" font-variant="normal" font-weight="400" font-stretch="normal" font-size="41" text-anchor="start" direction="ltr" writing-mode="lr-tb" unicode-bidi="normal" text-decoration="none" transform="matrix(1 0 0 1 1785.25 1009)">Python </text><path d="M852.5 874.001C852.5 856.603 866.603 842.5 884.001 842.5L1133 842.5C1150.4 842.5 1164.5 856.603 1164.5 874.001L1164.5 1000C1164.5 1017.4 1150.4 1031.5 1133 1031.5L884.001 1031.5C866.603 1031.5 852.5 1017.4 852.5 1000Z" stroke="#024059" stroke-width="3.4375" stroke-linecap="butt" stroke-linejoin="miter" stroke-miterlimit="8" stroke-opacity="1" fill="#AEAEAE" fill-rule="evenodd" fill-opacity="1"/><text fill="#000000" fill-opacity="1" font-family="Aptos,Aptos_MSFontService,sans-serif" font-style="normal" font-variant="normal" font-weight="700" font-stretch="normal" font-size="55" text-anchor="start" direction="ltr" writing-mode="lr-tb" unicode-bidi="normal" text-decoration="none" transform="matrix(1 0 0 1 939.604 921)">Mock </text><text fill="#000000" fill-opacity="1" font-family="Aptos,Aptos_MSFontService,sans-serif" font-style="normal" font-variant="normal" font-weight="700" font-stretch="normal" font-size="55" text-anchor="start" direction="ltr" writing-mode="lr-tb" unicode-bidi="normal" text-decoration="none" transform="matrix(1 0 0 1 904.06 987)">Provider</text><path d="M1196.5 873C1196.5 855.603 1210.6 841.5 1228 841.5L1593 841.5C1610.4 841.5 1624.5 855.603 1624.5 873L1624.5 999C1624.5 1016.4 1610.4 1030.5 1593 1030.5L1228 1030.5C1210.6 1030.5 1196.5 1016.4 1196.5 999Z" stroke="#024059" stroke-width="3.4375" stroke-linecap="butt" stroke-linejoin="miter" stroke-miterlimit="8" stroke-opacity="1" fill="#F2F2F2" fill-rule="evenodd" fill-opacity="1"/><text fill="#000000" fill-opacity="1" font-family="Aptos,Aptos_MSFontService,sans-serif" font-style="normal" font-variant="normal" font-weight="700" font-stretch="normal" font-size="50" text-anchor="start" direction="ltr" writing-mode="lr-tb" unicode-bidi="normal" text-decoration="none" transform="matrix(1 0 0 1 1247.86 897)">Vehicle Signal </text><text fill="#000000" fill-opacity="1" font-family="Aptos,Aptos_MSFontService,sans-serif" font-style="normal" font-variant="normal" font-weight="700" font-stretch="normal" font-size="50" text-anchor="start" direction="ltr" writing-mode="lr-tb" unicode-bidi="normal" text-decoration="none" transform="matrix(1 0 0 1 1257.9 957)">Specification </text><text fill="#000000" fill-opacity="1" font-family="Aptos,Aptos_MSFontService,sans-serif" font-style="italic" font-variant="normal" font-weight="400" font-stretch="normal" font-size="41" text-anchor="start" direction="ltr" writing-mode="lr-tb" unicode-bidi="normal" text-decoration="none" transform="matrix(1 0 0 1 1362.74 1009)">(VSS)</text><path d="M2243.5 838.336C2243.5 794.244 2279.24 758.5 2323.34 758.5L3407.66 758.5C3451.76 758.5 3487.5 794.244 3487.5 838.336L3487.5 1157.66C3487.5 1201.76 3451.76 1237.5 3407.66 1237.5L2323.34 1237.5C2279.24 1237.5 2243.5 1201.76 2243.5 1157.66Z" stroke="#024059" stroke-width="3.4375" stroke-linecap="butt" stroke-linejoin="miter" stroke-miterlimit="8" stroke-dasharray="13.75 10.3125" stroke-opacity="1" fill="none" fill-rule="evenodd"/><text fill="#747474" fill-opacity="1" font-family="Aptos,Aptos_MSFontService,sans-serif" font-style="normal" font-variant="normal" font-weight="700" font-stretch="normal" font-size="73" text-anchor="start" direction="ltr" writing-mode="lr-tb" unicode-bidi="normal" text-decoration="none" transform="matrix(1 0 0 1 1235.45 1228)">Data Services</text><path d="M2323.5 872.834C2323.5 853.872 2338.87 838.5 2357.83 838.5L2772.17 838.5C2791.13 838.5 2806.5 853.872 2806.5 872.834L2806.5 1010.17C2806.5 1029.13 2791.13 1044.5 2772.17 1044.5L2357.83 1044.5C2338.87 1044.5 2323.5 1029.13 2323.5 1010.17Z" stroke="#024059" stroke-width="3.4375" stroke-linecap="butt" stroke-linejoin="miter" stroke-miterlimit="8" stroke-opacity="1" fill="#C1E5F5" fill-rule="evenodd" fill-opacity="1"/><text fill="#000000" fill-opacity="1" font-family="Aptos,Aptos_MSFontService,sans-serif" font-style="normal" font-variant="normal" font-weight="700" font-stretch="normal" font-size="50" text-anchor="start" direction="ltr" writing-mode="lr-tb" unicode-bidi="normal" text-decoration="none" transform="matrix(1 0 0 1 2484.69 903)">KUKSA </text><text fill="#000000" fill-opacity="1" font-family="Aptos,Aptos_MSFontService,sans-serif" font-style="normal" font-variant="normal" font-weight="700" font-stretch="normal" font-size="50" text-anchor="start" direction="ltr" writing-mode="lr-tb" unicode-bidi="normal" text-decoration="none" transform="matrix(1 0 0 1 2434.84 963)">Databroker</text><text fill="#000000" fill-opacity="1" font-family="Aptos,Aptos_MSFontService,sans-serif" font-style="italic" font-variant="normal" font-weight="400" font-stretch="normal" font-size="41" text-anchor="start" direction="ltr" writing-mode="lr-tb" unicode-bidi="normal" text-decoration="none" transform="matrix(1 0 0 1 2438.58 1015)">(gRPC: 55555)</text><path d="M2972.5 1024.67C2972.5 1015.19 2980.19 1007.5 2989.67 1007.5L3438.33 1007.5C3447.81 1007.5 3455.5 1015.19 3455.5 1024.67L3455.5 1093.33C3455.5 1102.81 3447.81 1110.5 3438.33 1110.5L2989.67 1110.5C2980.19 1110.5 2972.5 1102.81 2972.5 1093.33Z" stroke="#024059" stroke-width="3.4375" stroke-linecap="butt" stroke-linejoin="miter" stroke-miterlimit="8" stroke-opacity="1" fill="#AEAEAE" fill-rule="evenodd" fill-opacity="1"/><text fill="#000000" fill-opacity="1" font-family="Aptos,Aptos_MSFontService,sans-serif" font-style="normal" font-variant="normal" font-weight="700" font-stretch="normal" font-size="55" text-anchor="start" direction="ltr" writing-mode="lr-tb" unicode-bidi="normal" text-decoration="none" transform="matrix(1 0 0 1 3065.1 1076)">Kit Manager</text><path d="M2972.5 842.667C2972.5 833.186 2980.19 825.5 2989.67 825.5L3438.33 825.5C3447.81 825.5 3455.5 833.186 3455.5 842.667L3455.5 911.333C3455.5 920.814 3447.81 928.5 3438.33 928.5L2989.67 928.5C2980.19 928.5 2972.5 920.814 2972.5 911.333Z" stroke="#024059" stroke-width="3.4375" stroke-linecap="butt" stroke-linejoin="miter" stroke-miterlimit="8" stroke-opacity="1" fill="#F2F2F2" fill-rule="evenodd" fill-opacity="1"/><text fill="#000000" fill-opacity="1" font-family="Aptos,Aptos_MSFontService,sans-serif" font-style="normal" font-variant="normal" font-weight="700" font-stretch="normal" font-size="50" text-anchor="start" direction="ltr" writing-mode="lr-tb" unicode-bidi="normal" text-decoration="none" transform="matrix(1 0 0 1 3049.01 893)">KUKSA Syncer</text><path d="M1005.06 818.863 1005.06 528.063 1904.69 528.063 1904.69 534.938 1008.5 534.938 1011.94 531.5 1011.94 818.863ZM1022.25 814.28 1008.5 841.78 994.75 814.28Z" fill="#156082" fill-rule="nonzero" fill-opacity="1"/><path d="M1845.06 818.086 1845.06 528.062 1904.47 528.062 1904.47 534.937 1848.5 534.937 1851.94 531.5 1851.94 818.086ZM1862.25 813.503 1848.5 841.003 1834.75 813.503Z" fill="#156082" fill-rule="nonzero" fill-opacity="1"/><path d="M22.9167-3.4375 99.8522-3.4375 99.8522 1157.76 36.832 1157.76 36.832 1150.89 96.4147 1150.89 92.9772 1154.33 92.9772 0 96.4147 3.4375 22.9167 3.4375ZM27.5 13.75 0 0 27.5-13.75ZM41.4153 1168.08 13.9153 1154.33 41.4153 1140.58Z" fill="#156082" fill-rule="nonzero" fill-opacity="1" transform="matrix(1.83697e-16 1 1 -1.83697e-16 1410.5 1030.5)"/><path d="M22.9167-3.4375 99.0761-3.4375 99.0761 1560.26 36.0553 1560.26 36.0553 1553.39 95.6386 1553.39 92.2011 1556.83 92.2011 0 95.6386 3.4375 22.9167 3.4375ZM27.5 13.75 0 0 27.5-13.75ZM40.6386 1570.58 13.1386 1556.83 40.6386 1543.08Z" fill="#156082" fill-rule="nonzero" fill-opacity="1" transform="matrix(1.83697e-16 1 1 -1.83697e-16 1008.5 1031.5)"/><path d="M22.9167-3.4375 86.2029-3.4375 86.2029 64.6301 82.7654 61.1926 142.614 61.1926 142.614 68.0676 79.3279 68.0676 79.3279 0 82.7654 3.4375 22.9167 3.4375ZM27.5 13.75 0 0 27.5-13.75ZM138.031 50.8801 165.531 64.6301 138.031 78.3801Z" fill="#156082" fill-rule="nonzero" fill-opacity="1" transform="matrix(-1 1.22465e-16 1.22465e-16 1 2972.03 876.5)"/><path d="M22.9166-3.4375 309.463-3.4375 309.463 68.5786 302.588 68.5786 302.588 0 306.026 3.4375 22.9166 3.4375ZM27.5 13.75 0 0 27.5-13.75Z" fill="#156082" fill-rule="nonzero" fill-opacity="1" transform="matrix(-1.83697e-16 -1 -1 1.83697e-16 2565.08 837.526)"/><path d="M22.9166-3.4375 296.661-3.4375 296.661 717.12 289.786 717.12 289.786 0 293.224 3.4375 22.9166 3.4375ZM27.5 13.75 0 0 27.5-13.75Z" fill="#156082" fill-rule="nonzero" fill-opacity="1" transform="matrix(-1.83697e-16 -1 -1 1.83697e-16 3213.62 824.724)"/><path d="M3.4376 22.9167 3.43776 56.0379-3.43724 56.0379-3.4374 22.9167ZM-13.7499 27.5001 0 0 13.7501 27.4999ZM13.7502 51.4545 0.000360892 78.9546-13.7498 51.4547Z" fill="#156082" fill-rule="nonzero" fill-opacity="1" transform="matrix(1 0 0 -1 3213.5 1007.45)"/><path d="M2300.19 944.734 2062.35 940.358 2062.48 933.485 2300.32 937.861ZM2295.93 927.466 2323.17 941.719 2295.42 954.961ZM2066.74 950.753 2039.5 936.5 2067.25 923.258Z" fill="#156082" fill-rule="nonzero" fill-opacity="1"/><text fill="#747474" fill-opacity="1" font-family="Aptos,Aptos_MSFontService,sans-serif" font-style="normal" font-variant="normal" font-weight="700" font-stretch="normal" font-size="73" text-anchor="start" direction="ltr" writing-mode="lr-tb" unicode-bidi="normal" text-decoration="none" transform="matrix(1 0 0 1 2695.17 1212)">Core Services</text><path d="M3629.5 1025.83C3629.5 1016.81 3636.81 1009.5 3645.83 1009.5L4224.17 1009.5C4233.19 1009.5 4240.5 1016.81 4240.5 1025.83L4240.5 1091.17C4240.5 1100.19 4233.19 1107.5 4224.17 1107.5L3645.83 1107.5C3636.81 1107.5 3629.5 1100.19 3629.5 1091.17Z" stroke="#024059" stroke-width="3.4375" stroke-linecap="butt" stroke-linejoin="miter" stroke-miterlimit="8" stroke-opacity="1" fill="#C1E5F5" fill-rule="evenodd" fill-opacity="1"/><text fill="#000000" fill-opacity="1" font-family="Aptos,Aptos_MSFontService,sans-serif" font-style="normal" font-variant="normal" font-weight="700" font-stretch="normal" font-size="50" text-anchor="start" direction="ltr" writing-mode="lr-tb" unicode-bidi="normal" text-decoration="none" transform="matrix(1 0 0 1 3666.57 1075)">playground.digital.auto</text><path d="M22.9167-3.43745 151.1-3.43719 151.1 3.43781 22.9167 3.43755ZM27.5 13.7501 0 0 27.5-13.7499ZM146.517-13.7497 174.017 0.000360892 146.517 13.7503Z" fill="#156082" fill-rule="nonzero" fill-opacity="1" transform="matrix(1 0 0 -1 3455.5 1058.5)"/></g></g></svg>