0
SECTION
2
HEADER
9
$INSUNITS
70
4
9
$ACADVER
1
AC1014
9
$HANDSEED
5
FFFF
0
ENDSEC
0
SECTION
2
TABLES
0
TABLE
2
VPORT
5
8
100
AcDbSymbolTable
0
ENDTAB
0
TABLE
2
LTYPE
5
5
100
AcDbSymbolTable
0
LTYPE
5
14
100
AcDbSymbolTableRecord
100
AcDbLinetypeTableRecord
2
BYBLOCK
70
0
0
LTYPE
5
15
100
AcDbSymbolTableRecord
100
AcDbLinetypeTableRecord
2
BYLAYER
70
0
0
LTYPE
5
16
100
AcDbSymbolTableRecord
100
AcDbLinetypeTableRecord
2
DASHED
70
0
3
Dashed __ __ __ __ __ __ __ __ __ __ __ __ __ _
72
65
73
2
40
0.75
49
0.5
74
0
49
-0.25
74
0
0
ENDTAB
0
TABLE
2
LAYER
5
2
100
AcDbSymbolTable
70
2
0
LAYER
5
50
100
AcDbSymbolTableRecord
100
AcDbLayerTableRecord
2
0
70
0
62
7
6
CONTINUOUS
0
ENDTAB
0
TABLE
2
STYLE
5
3
100
AcDbSymbolTable
70
1
0
STYLE
5
11
100
AcDbSymbolTableRecord
100
AcDbTextStyleTableRecord
2
STANDARD
70
0
0
ENDTAB
0
TABLE
2
VIEW
5
6
100
AcDbSymbolTable
70
0
0
ENDTAB
0
TABLE
2
UCS
5
7
100
AcDbSymbolTable
70
0
0
ENDTAB
0
TABLE
2
APPID
5
9
100
AcDbSymbolTable
70
2
0
APPID
5
12
100
AcDbSymbolTableRecord
100
AcDbRegAppTableRecord
2
ACAD
70
0
0
ENDTAB
0
TABLE
2
DIMSTYLE
5
A
100
AcDbSymbolTable
70
1
0
ENDTAB
0
TABLE
2
BLOCK_RECORD
5
1
100
AcDbSymbolTable
70
1
0
BLOCK_RECORD
5
1F
100
AcDbSymbolTableRecord
100
AcDbBlockTableRecord
2
*MODEL_SPACE
0
BLOCK_RECORD
5
1B
100
AcDbSymbolTableRecord
100
AcDbBlockTableRecord
2
*PAPER_SPACE
0
ENDTAB
0
ENDSEC
0
SECTION
2
BLOCKS
0
BLOCK
5
20
100
AcDbEntity
100
AcDbBlockBegin
2
*MODEL_SPACE
0
ENDBLK
5
21
100
AcDbEntity
100
AcDbBlockEnd
0
BLOCK
5
1C
100
AcDbEntity
100
AcDbBlockBegin
2
*PAPER_SPACE
0
ENDBLK
5
1D
100
AcDbEntity
100
AcDbBlockEnd
0
ENDSEC
0
SECTION
2
ENTITIES
0
POINT
5
100
100
AcDbEntity
8
0
100
AcDbPoint
10
0
20
0
30
0
0
POINT
5
101
100
AcDbEntity
8
0
100
AcDbPoint
10
800
20
0
30
0
0
POINT
5
102
100
AcDbEntity
8
0
100
AcDbPoint
10
0
20
0
30
0
0
POINT
5
103
100
AcDbEntity
8
0
100
AcDbPoint
10
0
20
600
30
0
0
POINT
5
104
100
AcDbEntity
8
0
100
AcDbPoint
10
0
20
0
30
0
0
CIRCLE
5
105
100
AcDbEntity
8
0
100
AcDbCircle
10
400
20
30
30
0
40
3.1000000000000005
210
0
220
0
230
1
0
CIRCLE
5
106
100
AcDbEntity
8
0
100
AcDbCircle
10
80.999919547891395
20
267.50003787390222
30
0
40
1.6000000000000179
210
0
220
0
230
1
0
LWPOLYLINE
5
107
100
AcDbEntity
8
0
100
AcDbPolyline
90
8
70
1
43
0.0
10
800.00000000000011
20
24.999999999999993
10
800
20
575
42
0.41421356237309676
10
775
20
599.99999999999989
10
25
20
600
42
0.41421356237309515
10
-8.8817841970012523e-15
20
575
10
4.4408920985006262e-15
20
25
42
0.41421356237309542
10
24.999999999999996
20
0
10
775
20
0
42
0.41421356237309676
0
CIRCLE
5
108
100
AcDbEntity
8
0
100
AcDbCircle
10
370.99991954789147
20
316.50003787390222
30
0
40
1.5999999999999772
210
0
220
0
230
1
0
CIRCLE
5
109
100
AcDbEntity
8
0
100
AcDbCircle
10
109.99991954789141
20
292.00003787390222
30
0
40
7.5
210
0
220
0
230
1
0
CIRCLE
5
110
100
AcDbEntity
8
0
100
AcDbCircle
10
196.99991954789141
20
267.50003787390222
30
0
40
1.6000000000000179
210
0
220
0
230
1
0
CIRCLE
5
111
100
AcDbEntity
8
0
100
AcDbCircle
10
138.99991954789144
20
267.50003787390222
30
0
40
1.5999999999999659
210
0
220
0
230
1
0
CIRCLE
5
112
100
AcDbEntity
8
0
100
AcDbCircle
10
138.99991954789144
20
316.50003787390222
30
0
40
1.5999999999999772
210
0
220
0
230
1
0
CIRCLE
5
113
100
AcDbEntity
8
0
100
AcDbCircle
10
254.99991954789147
20
267.50003787390222
30
0
40
1.5999999999999659
210
0
220
0
230
1
0
CIRCLE
5
114
100
AcDbEntity
8
0
100
AcDbCircle
10
215
20
30
30
0
40
3.1000000000000005
210
0
220
0
230
1
0
CIRCLE
5
115
100
AcDbEntity
8
0
100
AcDbCircle
10
312.99991954789141
20
316.50003787390222
30
0
40
1.6000000000000218
210
0
220
0
230
1
0
CIRCLE
5
116
100
AcDbEntity
8
0
100
AcDbCircle
10
30
20
390
30
0
40
3.1000000000000005
210
0
220
0
230
1
0
CIRCLE
5
117
100
AcDbEntity
8
0
100
AcDbCircle
10
80.999919547891395
20
365.50003787390222
30
0
40
1.6000000000000179
210
0
220
0
230
1
0
CIRCLE
5
118
100
AcDbEntity
8
0
100
AcDbCircle
10
80.999919547891395
20
463.50003787390222
30
0
40
1.6000000000000179
210
0
220
0
230
1
0
CIRCLE
5
119
100
AcDbEntity
8
0
100
AcDbCircle
10
196.99991954789141
20
463.50003787390222
30
0
40
1.6000000000000179
210
0
220
0
230
1
0
CIRCLE
5
120
100
AcDbEntity
8
0
100
AcDbCircle
10
312.99991954789141
20
365.50003787390222
30
0
40
1.6000000000000179
210
0
220
0
230
1
0
CIRCLE
5
121
100
AcDbEntity
8
0
100
AcDbCircle
10
312.99991954789141
20
463.50003787390222
30
0
40
1.6000000000000179
210
0
220
0
230
1
0
CIRCLE
5
122
100
AcDbEntity
8
0
100
AcDbCircle
10
254.99991954789147
20
512.50003787390233
30
0
40
1.5999999999999772
210
0
220
0
230
1
0
CIRCLE
5
123
100
AcDbEntity
8
0
100
AcDbCircle
10
370.99991954789147
20
463.50003787390222
30
0
40
1.5999999999999659
210
0
220
0
230
1
0
CIRCLE
5
124
100
AcDbEntity
8
0
100
AcDbCircle
10
341.99991954789141
20
488.00003787390222
30
0
40
7.5
210
0
220
0
230
1
0
CIRCLE
5
125
100
AcDbEntity
8
0
100
AcDbCircle
10
428.99991954789141
20
267.50003787390222
30
0
40
1.6000000000000179
210
0
220
0
230
1
0
CIRCLE
5
126
100
AcDbEntity
8
0
100
AcDbCircle
10
602.99991954789152
20
316.50003787390222
30
0
40
1.5999999999999772
210
0
220
0
230
1
0
CIRCLE
5
127
100
AcDbEntity
8
0
100
AcDbCircle
10
544.99991954789141
20
267.50003787390222
30
0
40
1.6000000000000179
210
0
220
0
230
1
0
CIRCLE
5
128
100
AcDbEntity
8
0
100
AcDbCircle
10
770
20
570
30
0
40
3.1000000000000005
210
0
220
0
230
1
0
CIRCLE
5
129
100
AcDbEntity
8
0
100
AcDbCircle
10
573.99991954789141
20
292.00003787390222
30
0
40
7.5
210
0
220
0
230
1
0
CIRCLE
5
130
100
AcDbEntity
8
0
100
AcDbCircle
10
573.99991954789141
20
390.00003787390227
30
0
40
7.5
210
0
220
0
230
1
0
CIRCLE
5
131
100
AcDbEntity
8
0
100
AcDbCircle
10
660.99991954789152
20
365.50003787390222
30
0
40
1.6000000000000179
210
0
220
0
230
1
0
CIRCLE
5
132
100
AcDbEntity
8
0
100
AcDbCircle
10
428.99991954789141
20
316.50003787390222
30
0
40
1.6000000000000218
210
0
220
0
230
1
0
CIRCLE
5
133
100
AcDbEntity
8
0
100
AcDbCircle
10
428.99991954789141
20
463.50003787390222
30
0
40
1.6000000000000179
210
0
220
0
230
1
0
CIRCLE
5
134
100
AcDbEntity
8
0
100
AcDbCircle
10
457.99991954789152
20
292.00003787390222
30
0
40
7.5
210
0
220
0
230
1
0
CIRCLE
5
135
100
AcDbEntity
8
0
100
AcDbCircle
10
585
20
210
30
0
40
3.1000000000000005
210
0
220
0
230
1
0
CIRCLE
5
136
100
AcDbEntity
8
0
100
AcDbCircle
10
400
20
210
30
0
40
3.1000000000000005
210
0
220
0
230
1
0
CIRCLE
5
137
100
AcDbEntity
8
0
100
AcDbCircle
10
486.99991954789147
20
316.50003787390222
30
0
40
1.5999999999999772
210
0
220
0
230
1
0
CIRCLE
5
138
100
AcDbEntity
8
0
100
AcDbCircle
10
602.99991954789152
20
267.50003787390222
30
0
40
1.5999999999999659
210
0
220
0
230
1
0
CIRCLE
5
139
100
AcDbEntity
8
0
100
AcDbCircle
10
770
20
30
30
0
40
3.1000000000000005
210
0
220
0
230
1
0
CIRCLE
5
140
100
AcDbEntity
8
0
100
AcDbCircle
10
544.99991954789141
20
316.50003787390222
30
0
40
1.6000000000000218
210
0
220
0
230
1
0
CIRCLE
5
141
100
AcDbEntity
8
0
100
AcDbCircle
10
486.99991954789147
20
365.50003787390222
30
0
40
1.5999999999999659
210
0
220
0
230
1
0
CIRCLE
5
142
100
AcDbEntity
8
0
100
AcDbCircle
10
215
20
570
30
0
40
3.1000000000000005
210
0
220
0
230
1
0
CIRCLE
5
143
100
AcDbEntity
8
0
100
AcDbCircle
10
718.99991954789152
20
267.50003787390222
30
0
40
1.5999999999999659
210
0
220
0
230
1
0
CIRCLE
5
144
100
AcDbEntity
8
0
100
AcDbCircle
10
30
20
570
30
0
40
3.1000000000000005
210
0
220
0
230
1
0
CIRCLE
5
145
100
AcDbEntity
8
0
100
AcDbCircle
10
585
20
30
30
0
40
3.1000000000000005
210
0
220
0
230
1
0
CIRCLE
5
146
100
AcDbEntity
8
0
100
AcDbCircle
10
341.99991954789141
20
390.00003787390227
30
0
40
7.5
210
0
220
0
230
1
0
CIRCLE
5
147
100
AcDbEntity
8
0
100
AcDbCircle
10
196.99991954789141
20
414.50003787390222
30
0
40
1.6000000000000218
210
0
220
0
230
1
0
CIRCLE
5
148
100
AcDbEntity
8
0
100
AcDbCircle
10
486.99991954789147
20
267.50003787390222
30
0
40
1.5999999999999659
210
0
220
0
230
1
0
CIRCLE
5
149
100
AcDbEntity
8
0
100
AcDbCircle
10
428.99991954789141
20
365.50003787390222
30
0
40
1.6000000000000179
210
0
220
0
230
1
0
CIRCLE
5
150
100
AcDbEntity
8
0
100
AcDbCircle
10
370.99991954789147
20
512.50003787390233
30
0
40
1.5999999999999772
210
0
220
0
230
1
0
CIRCLE
5
151
100
AcDbEntity
8
0
100
AcDbCircle
10
718.99991954789152
20
316.50003787390222
30
0
40
1.5999999999999772
210
0
220
0
230
1
0
CIRCLE
5
152
100
AcDbEntity
8
0
100
AcDbCircle
10
370.99991954789147
20
414.50003787390222
30
0
40
1.5999999999999772
210
0
220
0
230
1
0
CIRCLE
5
153
100
AcDbEntity
8
0
100
AcDbCircle
10
428.99991954789141
20
512.50003787390233
30
0
40
1.6000000000000218
210
0
220
0
230
1
0
CIRCLE
5
154
100
AcDbEntity
8
0
100
AcDbCircle
10
225.99991954789144
20
390.00003787390227
30
0
40
7.5
210
0
220
0
230
1
0
CIRCLE
5
155
100
AcDbEntity
8
0
100
AcDbCircle
10
486.99991954789147
20
414.50003787390222
30
0
40
1.5999999999999772
210
0
220
0
230
1
0
CIRCLE
5
156
100
AcDbEntity
8
0
100
AcDbCircle
10
770
20
390
30
0
40
3.1000000000000005
210
0
220
0
230
1
0
CIRCLE
5
157
100
AcDbEntity
8
0
100
AcDbCircle
10
544.99991954789141
20
365.50003787390222
30
0
40
1.6000000000000179
210
0
220
0
230
1
0
CIRCLE
5
158
100
AcDbEntity
8
0
100
AcDbCircle
10
585
20
570
30
0
40
3.1000000000000005
210
0
220
0
230
1
0
CIRCLE
5
159
100
AcDbEntity
8
0
100
AcDbCircle
10
689.99991954789152
20
390.00003787390227
30
0
40
7.5
210
0
220
0
230
1
0
CIRCLE
5
160
100
AcDbEntity
8
0
100
AcDbCircle
10
544.99991954789141
20
463.50003787390222
30
0
40
1.6000000000000179
210
0
220
0
230
1
0
CIRCLE
5
161
100
AcDbEntity
8
0
100
AcDbCircle
10
602.99991954789152
20
463.50003787390222
30
0
40
1.5999999999999659
210
0
220
0
230
1
0
CIRCLE
5
162
100
AcDbEntity
8
0
100
AcDbCircle
10
486.99991954789147
20
463.50003787390222
30
0
40
1.5999999999999659
210
0
220
0
230
1
0
CIRCLE
5
163
100
AcDbEntity
8
0
100
AcDbCircle
10
718.99991954789152
20
463.50003787390222
30
0
40
1.5999999999999659
210
0
220
0
230
1
0
CIRCLE
5
164
100
AcDbEntity
8
0
100
AcDbCircle
10
254.99991954789147
20
463.50003787390222
30
0
40
1.5999999999999659
210
0
220
0
230
1
0
CIRCLE
5
165
100
AcDbEntity
8
0
100
AcDbCircle
10
718.99991954789152
20
512.50003787390233
30
0
40
1.5999999999999772
210
0
220
0
230
1
0
CIRCLE
5
166
100
AcDbEntity
8
0
100
AcDbCircle
10
312.99991954789141
20
512.50003787390233
30
0
40
1.6000000000000218
210
0
220
0
230
1
0
CIRCLE
5
167
100
AcDbEntity
8
0
100
AcDbCircle
10
457.99991954789152
20
488.00003787390222
30
0
40
7.5
210
0
220
0
230
1
0
CIRCLE
5
168
100
AcDbEntity
8
0
100
AcDbCircle
10
138.99991954789144
20
512.50003787390233
30
0
40
1.5999999999999772
210
0
220
0
230
1
0
CIRCLE
5
169
100
AcDbEntity
8
0
100
AcDbCircle
10
718.99991954789152
20
365.50003787390222
30
0
40
1.5999999999999659
210
0
220
0
230
1
0
CIRCLE
5
170
100
AcDbEntity
8
0
100
AcDbCircle
10
660.99991954789152
20
512.50003787390233
30
0
40
1.6000000000000218
210
0
220
0
230
1
0
CIRCLE
5
171
100
AcDbEntity
8
0
100
AcDbCircle
10
544.99991954789141
20
512.50003787390233
30
0
40
1.6000000000000218
210
0
220
0
230
1
0
CIRCLE
5
172
100
AcDbEntity
8
0
100
AcDbCircle
10
457.99991954789152
20
390.00003787390227
30
0
40
7.5
210
0
220
0
230
1
0
CIRCLE
5
173
100
AcDbEntity
8
0
100
AcDbCircle
10
312.99991954789141
20
414.50003787390222
30
0
40
1.6000000000000218
210
0
220
0
230
1
0
CIRCLE
5
174
100
AcDbEntity
8
0
100
AcDbCircle
10
544.99991954789141
20
414.50003787390222
30
0
40
1.6000000000000218
210
0
220
0
230
1
0
CIRCLE
5
175
100
AcDbEntity
8
0
100
AcDbCircle
10
573.99991954789141
20
488.00003787390222
30
0
40
7.5
210
0
220
0
230
1
0
CIRCLE
5
176
100
AcDbEntity
8
0
100
AcDbCircle
10
689.99991954789152
20
488.00003787390222
30
0
40
7.5
210
0
220
0
230
1
0
CIRCLE
5
177
100
AcDbEntity
8
0
100
AcDbCircle
10
660.99991954789152
20
463.50003787390222
30
0
40
1.6000000000000179
210
0
220
0
230
1
0
CIRCLE
5
178
100
AcDbEntity
8
0
100
AcDbCircle
10
80.999919547891395
20
414.50003787390222
30
0
40
1.6000000000000218
210
0
220
0
230
1
0
CIRCLE
5
179
100
AcDbEntity
8
0
100
AcDbCircle
10
400
20
570
30
0
40
3.1000000000000005
210
0
220
0
230
1
0
CIRCLE
5
180
100
AcDbEntity
8
0
100
AcDbCircle
10
109.99991954789141
20
488.00003787390222
30
0
40
7.5
210
0
220
0
230
1
0
CIRCLE
5
181
100
AcDbEntity
8
0
100
AcDbCircle
10
486.99991954789147
20
512.50003787390233
30
0
40
1.5999999999999772
210
0
220
0
230
1
0
CIRCLE
5
182
100
AcDbEntity
8
0
100
AcDbCircle
10
428.99991954789141
20
414.50003787390222
30
0
40
1.6000000000000218
210
0
220
0
230
1
0
CIRCLE
5
183
100
AcDbEntity
8
0
100
AcDbCircle
10
225.99991954789144
20
488.00003787390222
30
0
40
7.5
210
0
220
0
230
1
0
CIRCLE
5
184
100
AcDbEntity
8
0
100
AcDbCircle
10
80.999919547891395
20
512.50003787390233
30
0
40
1.6000000000000218
210
0
220
0
230
1
0
CIRCLE
5
185
100
AcDbEntity
8
0
100
AcDbCircle
10
602.99991954789152
20
512.50003787390233
30
0
40
1.5999999999999772
210
0
220
0
230
1
0
CIRCLE
5
186
100
AcDbEntity
8
0
100
AcDbCircle
10
660.99991954789152
20
414.50003787390222
30
0
40
1.6000000000000218
210
0
220
0
230
1
0
CIRCLE
5
187
100
AcDbEntity
8
0
100
AcDbCircle
10
254.99991954789147
20
414.50003787390222
30
0
40
1.5999999999999772
210
0
220
0
230
1
0
CIRCLE
5
188
100
AcDbEntity
8
0
100
AcDbCircle
10
718.99991954789152
20
414.50003787390222
30
0
40
1.5999999999999772
210
0
220
0
230
1
0
CIRCLE
5
189
100
AcDbEntity
8
0
100
AcDbCircle
10
602.99991954789152
20
365.50003787390222
30
0
40
1.5999999999999659
210
0
220
0
230
1
0
CIRCLE
5
190
100
AcDbEntity
8
0
100
AcDbCircle
10
254.99991954789147
20
365.50003787390222
30
0
40
1.5999999999999659
210
0
220
0
230
1
0
CIRCLE
5
191
100
AcDbEntity
8
0
100
AcDbCircle
10
602.99991954789152
20
414.50003787390222
30
0
40
1.5999999999999772
210
0
220
0
230
1
0
CIRCLE
5
192
100
AcDbEntity
8
0
100
AcDbCircle
10
138.99991954789144
20
414.50003787390222
30
0
40
1.5999999999999772
210
0
220
0
230
1
0
CIRCLE
5
193
100
AcDbEntity
8
0
100
AcDbCircle
10
109.99991954789141
20
390.00003787390227
30
0
40
7.5
210
0
220
0
230
1
0
CIRCLE
5
194
100
AcDbEntity
8
0
100
AcDbCircle
10
138.99991954789144
20
463.50003787390222
30
0
40
1.5999999999999659
210
0
220
0
230
1
0
CIRCLE
5
195
100
AcDbEntity
8
0
100
AcDbCircle
10
138.99991954789144
20
365.50003787390222
30
0
40
1.5999999999999659
210
0
220
0
230
1
0
CIRCLE
5
196
100
AcDbEntity
8
0
100
AcDbCircle
10
370.99991954789147
20
365.50003787390222
30
0
40
1.5999999999999659
210
0
220
0
230
1
0
CIRCLE
5
197
100
AcDbEntity
8
0
100
AcDbCircle
10
196.99991954789141
20
365.50003787390222
30
0
40
1.6000000000000179
210
0
220
0
230
1
0
CIRCLE
5
198
100
AcDbEntity
8
0
100
AcDbCircle
10
196.99991954789141
20
512.50003787390233
30
0
40
1.6000000000000218
210
0
220
0
230
1
0
CIRCLE
5
199
100
AcDbEntity
8
0
100
AcDbCircle
10
689.99991954789152
20
292.00003787390222
30
0
40
7.5
210
0
220
0
230
1
0
CIRCLE
5
200
100
AcDbEntity
8
0
100
AcDbCircle
10
80.999919547891395
20
316.50003787390222
30
0
40
1.6000000000000218
210
0
220
0
230
1
0
CIRCLE
5
201
100
AcDbEntity
8
0
100
AcDbCircle
10
254.99991954789147
20
316.50003787390222
30
0
40
1.5999999999999772
210
0
220
0
230
1
0
CIRCLE
5
202
100
AcDbEntity
8
0
100
AcDbCircle
10
660.99991954789152
20
316.50003787390222
30
0
40
1.6000000000000218
210
0
220
0
230
1
0
CIRCLE
5
203
100
AcDbEntity
8
0
100
AcDbCircle
10
660.99991954789152
20
267.50003787390222
30
0
40
1.6000000000000179
210
0
220
0
230
1
0
CIRCLE
5
204
100
AcDbEntity
8
0
100
AcDbCircle
10
770
20
210
30
0
40
3.1000000000000005
210
0
220
0
230
1
0
CIRCLE
5
205
100
AcDbEntity
8
0
100
AcDbCircle
10
225.99991954789144
20
292.00003787390222
30
0
40
7.5
210
0
220
0
230
1
0
CIRCLE
5
206
100
AcDbEntity
8
0
100
AcDbCircle
10
215
20
210
30
0
40
3.1000000000000005
210
0
220
0
230
1
0
CIRCLE
5
207
100
AcDbEntity
8
0
100
AcDbCircle
10
196.99991954789141
20
316.50003787390222
30
0
40
1.6000000000000218
210
0
220
0
230
1
0
CIRCLE
5
208
100
AcDbEntity
8
0
100
AcDbCircle
10
341.99991954789141
20
292.00003787390222
30
0
40
7.5
210
0
220
0
230
1
0
CIRCLE
5
209
100
AcDbEntity
8
0
100
AcDbCircle
10
30
20
30
30
0
40
3.1000000000000005
210
0
220
0
230
1
0
CIRCLE
5
210
100
AcDbEntity
8
0
100
AcDbCircle
10
30
20
210
30
0
40
3.1000000000000005
210
0
220
0
230
1
0
CIRCLE
5
211
100
AcDbEntity
8
0
100
AcDbCircle
10
312.99991954789141
20
267.50003787390222
30
0
40
1.6000000000000179
210
0
220
0
230
1
0
CIRCLE
5
212
100
AcDbEntity
8
0
100
AcDbCircle
10
370.99991954789147
20
267.50003787390222
30
0
40
1.5999999999999659
210
0
220
0
230
1
0
LWPOLYLINE
5
213
100
AcDbEntity
8
0
100
AcDbPolyline
90
8
70
1
43
0.0
10
412.24772544722885
20
170.99932454583427
10
412.24772544722885
20
135.99932454583427
42
-0.41421356237310231
10
407.24772544722885
20
130.9993245458343
10
392.74772544722885
20
130.99932454583433
42
-0.41421356237310336
10
387.74772544722885
20
135.99932454583433
10
387.74772544722885
20
170.99932454583427
42
-0.41421356237310336
10
392.74772544722885
20
175.99932454583427
10
407.24772544722885
20
175.99932454583427
42
-0.41421356237310336
0
LWPOLYLINE
5
214
100
AcDbEntity
8
0
100
AcDbPolyline
90
8
70
1
43
0.0
10
582.75191288330564
20
175.99932454583424
10
597.49872544722905
20
175.99932454583427
42
-0.41421356237309509
10
602.49872544722905
20
170.99932454583427
10
602.49872544722905
20
135.99442449430359
42
-0.41421356237309404
10
597.49872544722905
20
130.99442449430359
10
582.75191528435676
20
130.99442449430364
42
-0.41421356237310231
10
577.75191528435687
20
135.99442449430356
10
577.75191528435687
20
170.99442449430364
42
-0.41450062993041342
0
LINE
5
215
100
AcDbEntity
8
0
100
AcDbLine
10
392.74772544722885
20
175.99932454583427
30
0
11
407.24772544722885
21
175.99932454583427
31
0
0
CIRCLE
5
216
100
AcDbEntity
8
0
100
AcDbCircle
10
416.49772544722879
20
177.99932454583421
30
0
40
1.5999999999999812
210
0
220
0
230
1
0
CIRCLE
5
217
100
AcDbEntity
8
0
100
AcDbCircle
10
383.49772544722885
20
177.99932454583421
30
0
40
1.600000000000019
210
0
220
0
230
1
0
CIRCLE
5
218
100
AcDbEntity
8
0
100
AcDbCircle
10
226.49772544722904
20
177.99932454583421
30
0
40
1.5999999999999801
210
0
220
0
230
1
0
CIRCLE
5
219
100
AcDbEntity
8
0
100
AcDbCircle
10
226.49772544722904
20
62.999324545834355
30
0
40
1.5999999999999845
210
0
220
0
230
1
0
CIRCLE
5
220
100
AcDbEntity
8
0
100
AcDbCircle
10
416.49772544722873
20
62.999324545834369
30
0
40
1.5999999999999659
210
0
220
0
230
1
0
CIRCLE
5
221
100
AcDbEntity
8
0
100
AcDbCircle
10
383.49772544722885
20
62.999324545834376
30
0
40
1.5999999999999659
210
0
220
0
230
1
0
CIRCLE
5
222
100
AcDbEntity
8
0
100
AcDbCircle
10
573.4977254472285
20
62.999324545834241
30
0
40
1.5999999999999659
210
0
220
0
230
1
0
CIRCLE
5
223
100
AcDbEntity
8
0
100
AcDbCircle
10
573.4977254472285
20
177.99932454583413
30
0
40
1.5999999999999659
210
0
220
0
230
1
0
LWPOLYLINE
5
224
100
AcDbEntity
8
0
100
AcDbPolyline
90
8
70
1
43
0.0
10
764.75000000000091
20
174.99999999999517
10
764.74999999999784
20
124.99999999999514
42
-0.41421356237309115
10
741.7499999999967
20
101.99999999999659
10
662.74999999999636
20
102.00000000000162
42
-0.41421356237309592
10
639.74999999999784
20
125.0000000000031
10
639.75000000000114
20
175.00000000000298
42
-0.41421356237309137
10
662.75000000000216
20
198.00000000000156
10
741.75000000000352
20
197.99999999999648
42
-0.41421356237308143
0
LWPOLYLINE
5
225
100
AcDbEntity
8
0
100
AcDbPolyline
90
8
70
1
43
0.0
10
160.24999999999955
20
175.00000000000082
10
160.25000000000028
20
125.00000000000082
42
-0.41421356237309548
10
137.25000000000054
20
102.00000000000051
10
58.24999999999968
20
101.99999999999943
42
-0.41421356237308204
10
35.250000000000298
20
124.99999999999901
10
35.249999999999574
20
174.99999999999909
42
-0.41421356237309481
10
58.249999999999247
20
197.99999999999943
10
137.24999999999926
20
198.00000000000054
42
-0.4142135623730952
0
ENDSEC
0
SECTION
2
OBJECTS
0
DICTIONARY
5
C
100
AcDbDictionary
3
ACAD_GROUP
350
D
3
ACAD_MLINESTYLE
350
17
0
DICTIONARY
5
D
100
AcDbDictionary
0
DICTIONARY
5
1A
330
C
100
AcDbDictionary
0
DICTIONARY
5
17
100
AcDbDictionary
0
ENDSEC
0
EOF
